# xmcd CD database file
#
# Track frame offsets:
#	150
#	21019
#	44132
#	66614
#	85141
#	109018
#	127826
#	148417
#	170503
#	195917
#	235865
#	253521
#	282163
#	303662
#
# Disc length: 4285 seconds
#
# Revision: 0
# Processed by: cddbd v1.5.1PL0 Copyright (c) Steve Scherf et al.
# Submitted via: CDex 1.51
#
DISCID=ca10bb0e
DTITLE=Various Artist - Que Le Pongan Salsa CD 1
DYEAR=1900
DGENRE=Salsa
TTITLE0=Frankie Ruiz_ Para darte fuego
TTITLE1=Lalo Rodríguez_ Devórame otra vez
TTITLE2=Andy Montañés_ Me lo estas poniendo difícil
TTITLE3=Tommy Olivencia_ Señora
TTITLE4=Marvin Santiago_ Auditorio azul
TTITLE5=Willie Chirino_ Caminando me voy
TTITLE6=Edgar Joel_ Me atrapa la noche
TTITLE7=Eddie Santiago_ Lluvia
TTITLE8=Manolito y su Trabuco_ Marcando la distancia
TTITLE9=Roberto Torres_ Caballo viejo - En directo
TTITLE10=La Charanga Rubalcaba_ Rico Bacilón
TTITLE11=Frankie Ruiz_ La rueda
TTITLE12=Andy Montañez_ Ámame otra vez
TTITLE13=Salsa Kids_ Déjame un beso
EXTD=
EXTT0=
EXTT1=
EXTT2=
EXTT3=
EXTT4=
EXTT5=
EXTT6=
EXTT7=
EXTT8=
EXTT9=
EXTT10=
EXTT11=
EXTT12=
EXTT13=
PLAYORDER=
